<svg width="92" height="92" viewBox="0 0 92 92" fill="none" xmlns="http://www.w3.org/2000/svg">
<g clip-path="url(#clip0_599_19125)">
<path d="M45.7749 0.188919L70.846 12.0541L57.0635 16.3938C55.9029 16.7408 54.6545 16.6461 53.5599 16.1278C52.4653 15.6096 51.602 14.7047 51.1372 13.5881L45.7749 0.188919Z" fill="#A0A4FF"/>
<path d="M55.6742 16.7948C54.6662 16.7941 53.681 16.496 52.8422 15.938C52.0035 15.38 51.3489 14.5871 50.9605 13.6588L45.5991 0.259008C45.5852 0.223785 45.5822 0.185206 45.5906 0.148272C45.5989 0.111338 45.6181 0.0777542 45.6458 0.0518746C45.6735 0.0259949 45.7084 0.00901363 45.7458 0.00313271C45.7833 -0.00274821 45.8217 0.00274253 45.856 0.0188929L70.9267 11.883C70.961 11.8992 70.9897 11.9255 71.0089 11.9582C71.0281 11.991 71.037 12.0288 71.0344 12.0666C71.0317 12.1045 71.0178 12.1407 70.9942 12.1705C70.9707 12.2003 70.9387 12.2224 70.9025 12.2338L57.1203 16.5738C56.6524 16.7208 56.1647 16.7953 55.6742 16.7948ZM46.1297 0.566756L51.3128 13.519C51.7604 14.5909 52.5899 15.4595 53.6413 15.9573C54.6927 16.455 55.8915 16.5466 57.0066 16.2145L70.3292 12.0205L46.1297 0.566756Z" fill="#373D4C"/>
<path d="M87.2089 71.8171L36.689 87.724C32.9846 88.8904 28.8123 86.9151 27.3707 83.3124L2.4984 21.1605C2.15162 20.3227 1.98426 19.4218 2.00708 18.5156C2.0299 17.6094 2.2424 16.718 2.63091 15.8986L0.826249 19.6507C0.437783 20.4701 0.225317 21.3614 0.202496 22.2676C0.179675 23.1738 0.347003 24.0747 0.693734 24.9125L25.5658 87.0643C27.0074 90.667 31.1797 92.6421 34.8841 91.4757L85.4041 75.5688C86.2621 75.3093 87.0571 74.8756 87.7392 74.295C88.4214 73.7145 88.976 72.9995 89.3682 72.1949L91.173 68.4428C90.7808 69.2474 90.2262 69.9624 89.5441 70.5431C88.8619 71.1237 88.0669 71.5575 87.2089 71.8171Z" fill="#5358CD"/>
<path d="M32.6984 91.9983C29.5902 91.9983 26.5785 90.1046 25.3901 87.1344L0.517759 24.9827C0.159809 24.121 -0.0128504 23.1938 0.0109549 22.2612C0.0347602 21.3286 0.254499 20.4114 0.655954 19.5689L2.45721 15.824L2.46081 15.817C2.47067 15.7933 2.48528 15.7718 2.50373 15.7539C2.52219 15.7361 2.5441 15.7221 2.56814 15.713C2.59217 15.7038 2.61782 15.6996 2.64352 15.7007C2.66923 15.7018 2.69444 15.7081 2.71763 15.7192C2.74081 15.7303 2.76149 15.746 2.77838 15.7654C2.79528 15.7847 2.80804 15.8073 2.8159 15.8318C2.82375 15.8562 2.82653 15.882 2.82407 15.9076C2.8216 15.9331 2.81394 15.9579 2.80156 15.9804C2.423 16.7758 2.21597 17.6416 2.19386 18.5218C2.17176 19.4021 2.33506 20.2772 2.67321 21.0905L27.5464 83.2421C28.9502 86.7492 33.0261 88.6794 36.6332 87.5436L87.153 71.6367C87.9854 71.3861 88.7568 70.9664 89.4189 70.4039C90.0809 69.8415 90.6192 69.1485 90.9999 68.3684L91.0033 68.3614C91.0132 68.3377 91.0278 68.3162 91.0462 68.2984C91.0647 68.2805 91.0866 68.2665 91.1106 68.2574C91.1347 68.2482 91.1603 68.244 91.186 68.2451C91.2117 68.2462 91.2369 68.2525 91.2601 68.2636C91.2833 68.2747 91.304 68.2904 91.3209 68.3098C91.3378 68.3292 91.3505 68.3517 91.3584 68.3762C91.3662 68.4006 91.369 68.4264 91.3666 68.452C91.3641 68.4775 91.3564 68.5023 91.344 68.5248L89.5394 72.2769C89.1369 73.1054 88.5667 73.8417 87.8649 74.4393C87.163 75.037 86.3447 75.483 85.4615 75.7492L34.9417 91.6562C34.2159 91.884 33.4593 91.9994 32.6984 91.9983ZM1.85086 17.9584L0.996706 19.7325C0.618224 20.528 0.41133 21.3939 0.389416 22.2742C0.367501 23.1545 0.531056 24.0295 0.869492 24.8428L25.7416 86.9942C27.1451 90.5017 31.2218 92.4309 34.8272 91.2957L85.3472 75.3888C86.1809 75.1378 86.9534 74.7172 87.6161 74.1535C88.2787 73.5897 88.8172 72.8951 89.1975 72.1133L90.0518 70.3375C89.2691 71.1045 88.3139 71.6735 87.2658 71.9968L36.746 87.9037C32.9551 89.0973 28.6702 87.069 27.1949 83.3821L2.32186 21.2306C1.9 20.1945 1.73831 19.0711 1.85086 17.9584Z" fill="#373D4C"/>
<path d="M45.7747 0.188919L51.137 13.5881C51.6019 14.7047 52.4651 15.6096 53.5597 16.1278C54.6544 16.6461 55.9027 16.7408 57.0633 16.3938L70.8458 12.0541L91.3063 63.1815C92.748 66.7839 90.9133 70.6507 87.2089 71.8171L36.6889 87.724C32.9846 88.8904 28.8122 86.9151 27.3705 83.3124L2.49837 21.1606C1.0566 17.5579 2.89099 13.6913 6.59554 12.5253L45.7747 0.188919Z" fill="white"/>
<path d="M34.504 88.2462C31.3958 88.2462 28.3839 86.3525 27.1954 83.3823L2.32183 21.2306C1.96289 20.3753 1.78836 19.4541 1.80959 18.527C1.83082 17.5999 2.04734 16.6876 2.44507 15.8495C2.8428 15.0114 3.41283 14.2663 4.11811 13.6624C4.82338 13.0586 5.6481 12.6097 6.53864 12.3449L45.718 0.00868945C45.7636 -0.00562215 45.8128 -0.00222481 45.856 0.0182006C45.8991 0.0386259 45.933 0.07457 45.9507 0.118829L51.3128 13.5181C51.7604 14.59 52.5899 15.4586 53.6413 15.9563C54.6927 16.4541 55.8915 16.5457 57.0066 16.2135L70.7881 11.8741C70.8337 11.8597 70.883 11.863 70.9262 11.8834C70.9694 11.9038 71.0032 11.9398 71.021 11.984L91.4822 63.1114C91.8411 63.9667 92.0156 64.8878 91.9944 65.8148C91.9731 66.7419 91.7566 67.6541 91.3589 68.4921C90.9612 69.3302 90.3913 70.0753 89.6861 70.6791C88.9809 71.2829 88.1562 71.7319 87.2658 71.9968L36.746 87.9037C36.0206 88.1315 35.2645 88.2471 34.504 88.2462ZM45.6644 0.421854L6.65242 12.7051C5.81159 12.9544 5.03283 13.3776 4.36689 13.9473C3.70095 14.517 3.16278 15.2203 2.78745 16.0115C2.41212 16.8026 2.20806 17.6638 2.18857 18.5389C2.16908 19.4141 2.33459 20.2835 2.67432 21.0905L27.5464 83.2421C28.9501 86.7496 33.0265 88.679 36.6332 87.5436L87.153 71.6367C87.9938 71.3874 88.7725 70.9642 89.4385 70.3945C90.1044 69.8248 90.6426 69.1215 91.018 68.3304C91.3934 67.5392 91.5975 66.678 91.617 65.8029C91.6366 64.9278 91.4711 64.0584 91.1314 63.2514L70.7353 12.2871L57.1203 16.5738C55.9142 16.9335 54.6174 16.8347 53.48 16.2964C52.3426 15.7581 51.4453 14.8185 50.9612 13.6588L45.6644 0.421854Z" fill="#373D4C"/>
<path d="M57.821 72.2888C57.4799 72.2826 57.1428 72.213 56.8272 72.0837C52.4877 70.4 45.5566 58.6121 41.6237 48.6563C36.973 36.8842 34.8971 25.6808 36.6874 22.0173C37.0128 21.3508 37.4618 20.9291 38.0216 20.7636C42.7893 19.3569 50.7699 34.0391 54.9739 44.2515C56.4372 47.8054 58.5379 54.0913 59.6933 59.4936C61.2481 66.7637 60.8897 71.008 58.6286 72.1082C58.3769 72.2295 58.1006 72.2913 57.821 72.2888ZM38.0763 20.9448L38.1301 21.126C37.6757 21.2601 37.3056 21.6157 37.0285 22.1839C35.2806 25.7607 37.3617 36.836 41.977 48.5191C46.4528 59.8491 53.1764 70.2636 56.9654 71.7328C57.5465 71.9584 58.0507 71.9707 58.4635 71.7706C60.5187 70.7707 60.8164 66.5533 59.3241 59.5746C58.1737 54.195 56.0817 47.9359 54.6248 44.3971C49.6176 32.2342 42.1352 19.9437 38.1301 21.1281L38.0763 20.9448Z" fill="#373D4C"/>
<path d="M32.386 67.0486C31.7425 67.0724 31.1093 66.8827 30.5853 66.5093C30.0426 66.1004 29.7215 65.4653 29.6308 64.6216C29.1939 60.5517 34.1333 51.7534 41.9221 42.7284C50.0445 33.3165 59.593 26.0658 64.1322 25.8612C64.9752 25.8234 65.6296 26.0278 66.0853 26.4682C67.6972 28.0275 67.079 31.5467 64.2971 36.6452C61.9989 40.8581 58.2461 46.0785 54.0012 50.9702C51.2752 54.1122 46.4727 58.8403 41.8926 62.3198C38.8542 64.6278 35.0355 67.0486 32.386 67.0486ZM64.3255 26.2345C64.2687 26.2345 64.2091 26.2358 64.1494 26.2387C59.703 26.4385 50.2708 33.6335 42.2087 42.9749C34.6047 51.7859 29.5871 60.6707 30.007 64.5813C30.0859 65.3172 30.357 65.8643 30.813 66.2075C32.5662 67.5279 36.3181 66.0795 41.6628 62.0192C46.2215 58.556 51.0005 53.8502 53.7146 50.7219C62.083 41.079 68.9287 29.7446 65.8212 26.7389C65.4746 26.4042 64.972 26.2345 64.3255 26.2345Z" fill="#373D4C"/>
<path d="M65.7425 55.1641H65.5721C60.1079 55.1477 52.9453 54.3367 46.4093 52.9944C34.9346 50.6375 19.4807 45.0876 20.3101 40.7971C20.4237 40.2048 20.8102 39.6857 21.4564 39.2538C24.9396 36.9248 36.4495 37.1345 49.4414 39.7639C62.7959 42.4654 73.6822 46.8306 75.9143 50.3785C76.2997 50.9906 76.4254 51.5756 76.2865 52.1165C75.6459 54.6286 70.2396 55.1641 65.7425 55.1641ZM30.7841 38.0062C26.479 38.0062 23.2307 38.5227 21.6669 39.5684C21.1078 39.9421 20.7771 40.3798 20.6825 40.8693C20.3449 42.6166 23.3119 44.9121 29.0379 47.3303C33.8995 49.3842 40.5856 51.413 46.4861 52.6251C59.9232 55.385 74.9566 55.8021 75.9206 52.0245C76.0322 51.5868 75.9226 51.1007 75.5946 50.5795C73.4474 47.1674 62.4173 42.7747 49.367 40.1344C42.3894 38.7226 35.8535 38.0062 30.7841 38.0062Z" fill="#373D4C"/>
<path d="M25.2551 44.6261C24.9781 44.7112 24.7318 44.8746 24.546 45.0965C24.4344 45.231 24.3484 45.3846 24.2919 45.5499C24.178 45.8899 24.1903 46.2596 24.3268 46.5913C24.4929 46.9897 24.8011 47.3124 25.1917 47.4974C25.5823 47.6823 26.0278 47.7162 26.442 47.5926C26.7402 47.5012 27.0026 47.3197 27.193 47.0731C27.2992 46.9343 27.379 46.7772 27.4284 46.6097C27.5226 46.2869 27.5043 45.9419 27.3766 45.6309C27.2106 45.2309 26.9016 44.9066 26.5096 44.721C26.1176 44.5354 25.6706 44.5017 25.2551 44.6265" fill="#5358CD"/>
<path d="M25.9472 47.8565C25.563 47.8561 25.1875 47.7424 24.8679 47.5297C24.5483 47.317 24.2988 47.0147 24.1508 46.6608C23.9984 46.2871 23.985 45.8713 24.1129 45.4885C24.1767 45.3016 24.274 45.128 24.4001 44.9759C24.6094 44.7263 24.8866 44.5423 25.1982 44.446C25.6593 44.3086 26.155 44.3464 26.5898 44.5523C27.0245 44.7581 27.3675 45.1173 27.5525 45.5606C27.6962 45.9111 27.7162 46.2998 27.6093 46.6631C27.5534 46.8528 27.463 47.0306 27.3426 47.1875C27.1289 47.4655 26.8337 47.6702 26.4981 47.7732C26.3198 47.8289 26.1341 47.857 25.9472 47.8565ZM25.312 44.8063C25.0698 44.8807 24.8543 45.0234 24.6914 45.2172C24.5946 45.3339 24.5199 45.4671 24.4709 45.6105C24.3708 45.9077 24.382 46.231 24.5023 46.5207C24.6503 46.8751 24.9246 47.1623 25.2722 47.3269C25.6198 47.4915 26.0162 47.5218 26.3849 47.412C26.6458 47.3324 26.8754 47.174 27.0422 46.9586C27.1345 46.8381 27.2039 46.7017 27.2468 46.5562C27.3292 46.2742 27.3129 45.9725 27.2006 45.701C27.0521 45.3454 26.777 45.0573 26.4282 44.8922C26.0795 44.727 25.6819 44.6966 25.312 44.8067V44.8063Z" fill="#373D4C"/>
<path d="M59.6458 62.5131C59.4493 62.5715 59.2673 62.6706 59.1118 62.8039C58.9562 62.9372 58.8305 63.1017 58.7428 63.2866C58.6551 63.4716 58.6075 63.6729 58.6029 63.8775C58.5983 64.0821 58.637 64.2853 58.7163 64.474C58.8327 64.7551 59.0206 65.0011 59.2614 65.1876C59.5022 65.3741 59.7875 65.4947 60.0893 65.5375C60.2733 65.5645 60.4604 65.5609 60.6432 65.527C60.7072 65.515 60.7704 65.4992 60.8325 65.4797C61.0292 65.421 61.2113 65.3216 61.367 65.1879C61.5226 65.0543 61.6483 64.8894 61.7358 64.704C61.8233 64.5187 61.8707 64.317 61.8749 64.1121C61.8791 63.9073 61.8399 63.7038 61.7601 63.5151C61.6391 63.2245 61.4417 62.972 61.1888 62.7842C60.9359 62.5964 60.6369 62.4802 60.3233 62.4479C60.1341 62.4273 59.9428 62.4392 59.7577 62.483C59.7198 62.4921 59.6819 62.5019 59.6441 62.5136" fill="#5358CD"/>
<path d="M60.3356 65.7434C60.244 65.7434 60.1524 65.7368 60.0617 65.7236C59.7268 65.6767 59.4101 65.543 59.1432 65.3359C58.8762 65.1288 58.6684 64.8554 58.5403 64.5431C58.4514 64.3303 58.4083 64.1013 58.4138 63.8708C58.4192 63.6404 58.4731 63.4136 58.572 63.2052C58.6708 62.9969 58.8124 62.8116 58.9876 62.6613C59.1627 62.511 59.3676 62.3991 59.5888 62.3328C59.6307 62.3198 59.6723 62.309 59.7143 62.2988C59.9205 62.2499 60.1336 62.2365 60.3443 62.2594C60.692 62.2959 61.0233 62.4252 61.3036 62.6337C61.5838 62.8422 61.8026 63.1222 61.9369 63.4442C62.0264 63.6572 62.07 63.8865 62.0649 64.1174C62.0599 64.3483 62.0062 64.5755 61.9075 64.7844C61.8087 64.9932 61.6671 65.179 61.4918 65.3297C61.3164 65.4805 61.1113 65.5927 60.8897 65.6592C60.8203 65.6809 60.7497 65.6984 60.6783 65.7117C60.5653 65.7329 60.4506 65.7435 60.3356 65.7434ZM59.7028 62.6931C59.5312 62.7438 59.3723 62.83 59.2365 62.9462C59.1006 63.0623 58.9908 63.2058 58.9143 63.3672C58.8378 63.5286 58.7962 63.7043 58.7924 63.8828C58.7886 64.0613 58.8225 64.2386 58.892 64.4031C58.9954 64.654 59.1628 64.8734 59.3777 65.0395C59.5925 65.2056 59.8472 65.3126 60.1164 65.3498C60.2799 65.374 60.4462 65.3709 60.6086 65.3405C60.6653 65.33 60.7214 65.3161 60.7765 65.2989C60.9484 65.2481 61.1076 65.1615 61.2436 65.045C61.3797 64.9284 61.4895 64.7845 61.5659 64.6226C61.6423 64.4608 61.6836 64.2846 61.687 64.1057C61.6904 63.9268 61.6559 63.7492 61.5858 63.5846C61.4774 63.3261 61.3013 63.1015 61.0759 62.9344C60.8506 62.7673 60.5842 62.6639 60.305 62.6351C60.1372 62.6168 59.9675 62.6273 59.8033 62.6663C59.77 62.6742 59.7369 62.6827 59.7034 62.6931H59.7028Z" fill="#373D4C"/>
<path d="M58.7265 26.2693C58.5298 26.328 58.3477 26.4274 58.192 26.5611C58.0364 26.6948 57.9108 26.8596 57.8232 27.045C57.7357 27.2303 57.6883 27.432 57.6841 27.6369C57.68 27.8417 57.7191 28.0452 57.7989 28.234C57.8061 28.2517 57.8139 28.2695 57.8216 28.2872C57.896 28.455 57.9978 28.6093 58.1228 28.7438C58.3452 28.985 58.631 29.1589 58.9477 29.2458C59.2644 29.3326 59.5991 29.3289 59.9138 29.235C60.1107 29.1769 60.2931 29.0781 60.4492 28.945C60.6053 28.8119 60.7316 28.6475 60.8197 28.4624C60.9079 28.2774 60.956 28.0759 60.961 27.871C60.9659 27.6662 60.9275 27.4626 60.8484 27.2735C60.847 27.2699 60.8455 27.2667 60.844 27.2631C60.7748 27.0939 60.6781 26.9372 60.558 26.7992C60.3365 26.544 60.0458 26.3582 59.7209 26.2642C59.396 26.1702 59.0508 26.1719 58.7269 26.2693" fill="#5358CD"/>
<path d="M59.4125 29.5004C59.1438 29.4994 58.8782 29.443 58.6323 29.3349C58.3864 29.2267 58.1655 29.0691 57.9834 28.8719C57.8442 28.722 57.7308 28.5501 57.648 28.3632C57.6364 28.3367 57.6291 28.3197 57.6224 28.3025C57.5331 28.0896 57.4896 27.8604 57.4948 27.6297C57.5 27.399 57.5536 27.1719 57.6524 26.9632C57.7511 26.7545 57.8927 26.5688 58.0679 26.4182C58.2432 26.2677 58.4482 26.1555 58.6697 26.089C59.0287 25.9815 59.4113 25.9795 59.7715 26.0834C60.1317 26.1872 60.4542 26.3925 60.7005 26.6747C60.8342 26.8283 60.9418 27.0027 61.0189 27.1912C61.1098 27.4046 61.1545 27.6349 61.15 27.8668C61.1456 28.0987 61.0921 28.3271 60.9932 28.537C60.8942 28.7468 60.7519 28.9335 60.5756 29.0847C60.3994 29.2359 60.1931 29.3483 59.9703 29.4145C59.7899 29.4713 59.6017 29.5003 59.4125 29.5004ZM59.2262 26.382C59.076 26.3818 58.9267 26.4045 58.7834 26.4493C58.6115 26.5002 58.4523 26.5867 58.3163 26.7033C58.1803 26.8198 58.0705 26.9637 57.9941 27.1256C57.9177 27.2875 57.8764 27.4637 57.873 27.6425C57.8696 27.8214 57.9042 27.999 57.9743 28.1637L57.9904 28.2015C58.0569 28.3536 58.1485 28.4935 58.2615 28.6154C58.4601 28.8294 58.7145 28.9839 58.9963 29.0615C59.278 29.1392 59.5759 29.1368 59.8564 29.0548C60.0285 29.0046 60.188 28.9187 60.3245 28.8027C60.461 28.6866 60.5714 28.5432 60.6484 28.3816C60.7255 28.22 60.7674 28.044 60.7715 27.8651C60.7756 27.6863 60.7418 27.5085 60.6723 27.3436C60.6101 27.1902 60.523 27.0481 60.4146 26.9229C60.2664 26.7537 60.0837 26.6179 59.8788 26.5247C59.6739 26.4314 59.4514 26.3828 59.2262 26.382Z" fill="#373D4C"/>
<path d="M46.7522 42.5956C46.2404 42.7473 45.7664 43.0048 45.3611 43.3516C44.9557 43.6983 44.6281 44.1264 44.3997 44.6079C44.1712 45.0894 44.047 45.6136 44.0351 46.1462C44.0233 46.6789 44.124 47.208 44.3308 47.6992C44.7628 48.7367 45.565 49.5776 46.5822 50.0591C47.5994 50.5407 48.7594 50.6287 49.8379 50.3063C50.3492 50.1539 50.8226 49.8958 51.2274 49.549C51.6323 49.2021 51.9595 48.7741 52.1878 48.2929C52.4161 47.8116 52.5405 47.2878 52.5528 46.7554C52.5651 46.2231 52.465 45.6941 52.2592 45.2029C51.8271 44.1654 51.0249 43.3247 50.0078 42.8431C48.9906 42.3616 47.8307 42.2735 46.7522 42.5958" fill="#5358CD"/>
<path d="M48.546 50.6923C47.6067 50.6914 46.6886 50.4135 45.9072 49.8934C45.1258 49.3734 44.5158 48.6344 44.1541 47.7693C43.9377 47.2539 43.8325 46.6988 43.8453 46.1402C43.8581 45.5815 43.9886 45.0318 44.2283 44.5268C44.468 44.0218 44.8116 43.5728 45.2367 43.2091C45.6618 42.8453 46.1588 42.5749 46.6955 42.4156C47.8196 42.0806 49.0281 42.1729 50.088 42.6747C51.1479 43.1765 51.9841 44.0521 52.4353 45.1328C52.6508 45.6482 52.7554 46.203 52.7422 46.7614C52.7291 47.3197 52.5985 47.869 52.359 48.3738C52.1194 48.8785 51.7763 49.3274 51.3518 49.6913C50.9273 50.0553 50.4309 50.3261 49.8948 50.4863C49.4584 50.6235 49.0035 50.6929 48.546 50.6923ZM46.8085 42.7766C46.3216 42.9204 45.8705 43.1651 45.4848 43.4947C45.099 43.8244 44.7873 44.2315 44.57 44.6895C44.3527 45.1476 44.2346 45.6462 44.2236 46.1529C44.2125 46.6595 44.3087 47.1628 44.5058 47.6299C44.9205 48.6231 45.689 49.4278 46.6633 49.8888C47.6375 50.3498 48.7482 50.4343 49.7812 50.1261C50.2676 49.9815 50.7181 49.7363 51.1033 49.4065C51.4886 49.0768 51.7999 48.6697 52.0171 48.212C52.2343 47.7542 52.3525 47.2559 52.3639 46.7495C52.3754 46.2432 52.28 45.7401 52.0838 45.2729C51.6692 44.2798 50.9008 43.4751 49.9268 43.014C48.9527 42.5528 47.8421 42.468 46.8091 42.7758L46.8085 42.7766Z" fill="#373D4C"/>
</g>
<defs>
<clipPath id="clip0_599_19125">
<rect width="92" height="92" fill="white"/>
</clipPath>
</defs>
</svg>
