<?xml version="1.0" encoding="utf-8"?>
<svg viewBox="0 0 537 117" xmlns="http://www.w3.org/2000/svg">
  <g transform="matrix(0.10000000149011612, 0, 0, -0.10000000149011612, 5.684341886080802e-14, 117.00000000000006)" fill="#000000" stroke="none">
    <path d="M70 590 l0 -520 245 0 244 0 86 77 86 76 78 -77 77 -76 244 2 245 3 3 518 2 517 -195 0 -195 0 0 -225 c0 -173 -3 -225 -12 -225 -7 0 -62 36 -123 80 -60 44 -119 80 -131 80 -11 0 -71 -36 -132 -80 -60 -44 -115 -80 -121 -80 -8 0 -11 68 -11 225 l0 225 -195 0 -195 0 0 -520z" style="fill: rgb(99, 96, 255);"/>
    <path d="M1537 718 c-3 -216 -3 -396 1 -400 5 -5 240 -7 523 -6 l514 3 3 398 2 397 -518 0 -519 0 -6 -392z m892 208 c8 -9 11 -79 9 -232 l-3 -219 -307 -3 -308 -2 0 228 c0 126 3 232 7 235 3 4 138 7 298 7 236 0 295 -3 304 -14z" style="fill: rgb(99, 96, 255);"/>
    <path d="M 1940 705 L 1940 630 L 2020 630 L 2098.524 629.175 L 2096.349 703 L 2095 779.127 L 2017.175 780.476 L 1940 781 L 1940 705 Z" style="fill: rgb(99, 96, 255);"/>
    <path d="M 2211.189 705 L 2212.378 630 L 2290 630 L 2369.217 630 L 2367.406 703 L 2365 780.35 L 2288 780.972 L 2210 781 L 2211.189 705 Z" style="fill: rgb(99, 96, 255);"/>
    <path d="M2742 593 l3 -518 193 -3 192 -2 0 135 c0 104 3 135 13 135 7 0 37 -59 68 -132 l55 -133 327 -3 327 -2 0 520 0 520 -195 0 -194 0 -3 -132 c-2 -73 -7 -133 -12 -133 -5 0 -34 60 -64 133 l-55 132 -328 0 -329 0 2 -517z" style="fill: rgb(99, 96, 255);"/>
    <path d="M4080 590 l0 -520 260 0 260 0 0 135 c0 101 3 135 13 135 6 0 37 -60 67 -133 l55 -132 260 -3 c143 -1 265 0 272 2 8 3 -27 92 -103 261 -63 142 -114 263 -114 270 0 7 18 50 39 96 21 46 73 157 114 247 l76 162 -273 0 -273 0 -55 -132 c-29 -73 -58 -133 -63 -133 -6 0 -11 57 -13 133 l-3 132 -259 0 -260 0 0 -520z" style="fill: rgb(99, 96, 255);"/>
    <path d="M1534 216 c-3 -7 -4 -42 -2 -77 l3 -64 520 0 520 0 3 78 3 77 -521 0 c-429 0 -522 -2 -526 -14z" style="fill: rgb(99, 96, 255);"/>
  </g>
</svg>